<svg width="79" height="79" viewBox="0 0 79 79" fill="none" xmlns="http://www.w3.org/2000/svg">
<path d="M75.2451 38.268L41.7477 4.66673C41.0694 3.98633 39.9697 3.98633 39.2914 4.66673L5.79397 38.268C5.11567 38.9484 5.11567 40.0515 5.79397 40.7319L39.2914 74.3332C39.9697 75.0136 41.0694 75.0136 41.7477 74.3332L75.2451 40.7319C75.9234 40.0515 75.9234 38.9484 75.2451 38.268Z" fill="url(#paint0_linear_442_1988)"/>
<path d="M53.1344 62.2236C48.9246 64.4186 49.8697 64.3338 44.7231 64.7705C39.5761 65.2069 34.398 64.3248 29.7739 62.2236C25.1498 60.1223 21.2646 56.8861 18.5578 52.881C15.851 48.8758 14.4306 44.2617 14.4574 39.5603C14.4842 34.859 15.9571 30.2585 18.7094 26.279C21.4617 22.2996 25.3836 19.1001 30.0314 17.0427C34.6792 14.9852 39.8672 14.1519 45.0086 14.6369C50.1501 15.122 51.4625 15.461 55.547 18.3422L53.1344 26.8114C50.4912 24.947 47.3273 23.7925 44.0004 23.4786C40.6735 23.1647 37.3161 23.704 34.3086 25.0354C31.3011 26.3667 28.7632 28.4371 26.9822 31.0121C25.2012 33.5872 24.2481 36.5642 24.2308 39.6065C24.2134 42.6486 25.1325 45.6343 26.8841 48.2261C28.6357 50.8179 31.1498 52.9119 34.142 54.2717C37.1342 55.6312 40.4849 56.202 43.8153 55.9195C47.146 55.6371 50.3227 54.5125 52.987 52.6732L53.1344 62.2236Z" fill="#D0D0D0"/>
<defs>
<linearGradient id="paint0_linear_442_1988" x1="58.4965" y1="21.4675" x2="22.4315" y2="57.421" gradientUnits="userSpaceOnUse">
<stop stop-color="#212D55"/>
<stop offset="0.491587" stop-color="#212D55" stop-opacity="0.38"/>
<stop offset="1" stop-color="#212D55"/>
</linearGradient>
</defs>
</svg>
